<svg id="Capa_1" enable-background="new 0 0 512 512" height="512" viewBox="0 0 512 512" width="512" xmlns="http://www.w3.org/2000/svg"><circle cx="256" cy="256" fill="#ffe400" r="256"/><path d="m512 256c0 87.11-43.52 164.07-110 210.31-41.41 28.8-91.73 45.69-146 45.69s-104.59-16.89-146-45.69c-66.48-46.24-110-123.2-110-210.31 0-46.22 12.25-89.57 33.68-127 44.12 77.07 127.16 129 222.32 129s178.21-51.93 222.32-129c21.43 37.43 33.68 80.78 33.68 127z" fill="#ffce00"/><path d="m440.46 433.5c-11.69 12.15-24.57 23.15-38.46 32.81-41.41 28.8-91.73 45.69-146 45.69s-104.59-16.89-146-45.69c-13.89-9.66-26.77-20.66-38.46-32.81z" fill="#545d7a"/><path d="m440.46 433.5c-11.69 12.15-24.57 23.15-38.46 32.81-41.41 28.8-91.73 45.69-146 45.69v-78.5z" fill="#474f6f"/><path d="m466.84 253-108.29 43.61-27.68-10.82-37.97 37.26-235.29 94.75c-4.37-5.36-8.53-10.9-12.47-16.6-2.08-3.02-4.1-6.08-6.06-9.19-.26-.42-.52-.84-.78-1.26-5.15-8.31-9.85-16.93-14.03-25.84-.8-1.7-1.58-3.4-2.34-5.12 7.93-15.55 20.51-28.9 36.89-37.76 22.86-12.36 43.68-27.98 61.85-46.3.43-.44.86-.87 1.28-1.31 5.85-5.98 11.43-12.25 16.7-18.79 3.74-4.63 7.33-9.4 10.76-14.29.57-.82 1.14-1.65 1.71-2.47l8.36-12.24 10.06-14.71 20.12-29.43 7.34-10.73 204.03-82.16z" fill="#a63917"/><path d="m401.036 89.595 65.805 163.407-108.289 43.609-27.687-10.821-37.96 37.257-226.902 91.376c.605-8.081 2.312-16.024 5.033-23.588 7.186-19.927 21.458-37.306 41.358-48.069 22.86-12.354 43.679-27.982 61.849-46.306 11.208-11.305 21.4-23.635 30.454-36.865l56.946-84.769 15.341-22.834 11.449-17.051z" fill="#83250d"/><path d="m401.036 89.595 65.805 163.407-108.289 43.609-27.687-10.821-53.881-133.798 11.449-17.052z" fill="#a63917"/><path d="m421.594 140.65 45.245 112.353-82.387 33.178-12.067-29.966c-18.325-45.503 3.706-97.241 49.209-115.565z" fill="#83250d"/><path d="m215.58 354.19-157.97 63.61c-4.37-5.36-8.53-10.9-12.47-16.6-2.08-3.02-4.1-6.08-6.06-9.19-.26-.42-.52-.84-.78-1.26-5.15-8.31-9.85-16.93-14.03-25.84-.8-1.7-1.58-3.4-2.34-5.12 7.93-15.55 20.51-28.9 36.89-37.76 22.86-12.36 43.68-27.98 61.85-46.3.43-.44.86-.87 1.28-1.31l65.87 56.12z" fill="#83250d"/><g fill="#531d10"><path d="m207.44 357.47-149.83 60.33c-4.37-5.36-8.53-10.9-12.47-16.6-2.08-3.02-4.1-6.08-6.06-9.19-.26-.42-.52-.84-.78-1.26-5.15-8.31-9.85-16.93-14.03-25.84l105-42.29c3.69-1.48 7.72-1.87 11.62-1.12l46.93 9.04z"/><path d="m466.84 253-108.29 43.61-27.68-10.82-37.96 37.26-235.3 94.75c-4.37-5.36-8.53-10.9-12.47-16.6-2.08-3.02-4.1-6.08-6.06-9.19-.26-.42-.52-.84-.78-1.26l416.48-167.71z"/><path d="m246.754 226.978c-1.037 1.735-2.567 2.989-4.306 3.689-2.495 1.005-5.413.869-7.892-.615l-54.951-32.848 10.06-14.713 54.022 32.285c4.214 2.521 5.588 7.987 3.067 12.202z"/><path d="m228.498 257.52c-1.037 1.735-2.567 2.989-4.306 3.689-2.495 1.005-5.413.869-7.892-.615l-56.814-33.965 10.06-14.713 55.885 33.402c4.216 2.528 5.587 7.987 3.067 12.202z"/><path d="m210.243 288.069c-1.039 1.729-2.564 2.98-4.303 3.68-2.495 1.005-5.413.869-7.898-.612l-59.396-35.502c3.743-4.634 7.329-9.403 10.764-14.293l57.765 34.526c4.215 2.52 5.586 7.98 3.068 12.201z"/><path d="m401.034 89.596 10.083 25.038-149.476 60.196 26.794-39.89z"/></g><path d="m229.76 391.095c-.09 18.98-71.06-55.625-47.36-65.835.56-.24 1.12-.48 1.68-.73 7.66-3.36 15.17-7.1 22.5-11.19 5.2-2.9 10.31-5.98 15.32-9.23.84-.55 1.68-1.1 2.52-1.66l12.33-8.23 14.82-9.89 29.66-19.78 10.81-7.21h98.57z" fill="#ec781b"/><path d="m511.99 257.34c-.09 18.98-2.25 37.48-6.28 55.27-10.45 46.31-33.45 87.86-65.24 120.89h-45.21l-21.64-20.38-49.13 20.38h-244.61c3.58-7.27 8.13-14 13.48-20 14.11-15.8 33.84-26.59 56.32-29.14 25.82-2.92 50.97-9.64 74.67-19.85 14.62-6.3 28.68-13.93 42.02-22.82l84.49-57.36 22.76-15.45 16.99-11.54z" fill="#c55733"/><path d="m511.99 257.34c-.09 18.98-2.25 37.48-6.28 55.27-10.45 46.31-33.45 87.86-65.24 120.89h-45.21l-21.64-20.38v-144.24l16.99-11.54z" fill="#a63917"/><path d="m505.71 312.61c-10.45 46.31-33.45 87.86-65.24 120.89h-17.29v-32.3c0-46.95 36.41-85.38 82.53-88.59z" fill="#c55733"/><path d="m241.13 433.5h-169.6c-9.64-10.02-18.47-20.82-26.39-32.3-2.08-3.02-4.1-6.08-6.06-9.19 3.38-6.42 7.53-12.38 12.33-17.75.69-.78 1.39-1.53 2.11-2.28 13.93-14.56 32.82-24.44 54.21-26.86 25.82-2.93 50.97-9.65 74.67-19.86.56-.24 1.12-.48 1.68-.73l40.13 76.67z" fill="#c55733"/><path d="m232.35 433.5h-160.82c-9.64-10.02-18.47-20.82-26.39-32.3-2.08-3.02-4.1-6.08-6.06-9.19 3.38-6.42 7.53-12.38 12.33-17.75.69-.78 1.39-1.53 2.11-2.28.05.01.08.01.08 0h119.26c3.98 0 7.86 1.15 11.2 3.3l40.15 25.92z" fill="#a63917"/><path d="m466.85 401.2c-7.91 11.48-16.74 22.28-26.38 32.3h-45.21l-21.64-20.38-49.13 20.38h-252.96c-9.64-10.02-18.47-20.82-26.39-32.3z" fill="#83250d"/><path d="m466.85 401.2c-7.91 11.48-16.74 22.28-26.38 32.3h-45.21l-21.64-20.38v-11.92z" fill="#531d10"/><path d="m317.567 327.145c-1.61 1.223-3.498 1.814-5.373 1.814-2.69 0-5.345-1.216-7.091-3.518l-38.703-50.997 14.828-9.89 38.051 50.128c2.968 3.912 2.201 9.495-1.712 12.463z" fill="#531d10"/><path d="m289.223 348.657c-1.61 1.223-3.498 1.814-5.373 1.814-2.69 0-5.345-1.216-7.091-3.518l-40.014-52.729 14.828-9.89 39.362 51.86c2.968 3.918 2.2 9.495-1.712 12.463z" fill="#531d10"/><path d="m260.878 370.175c-1.61 1.216-3.491 1.807-5.366 1.807-2.69 0-5.345-1.216-7.098-3.518l-41.834-55.12c5.203-2.9 10.311-5.984 15.324-9.238l40.686 53.605c2.968 3.912 2.201 9.489-1.712 12.464z" fill="#531d10"/><path d="m511.99 257.34c-.05 9.12-.57 18.12-1.54 26.99h-159.59l39.75-26.99z" fill="#83250d"/></svg>